<svg width="26" height="19" viewBox="0 0 26 19" fill="none" xmlns="http://www.w3.org/2000/svg">
<path d="M25.1333 12.9547H20.7513C20.7832 12.6679 20.7995 12.3797 20.8 12.0911C20.8 10.0297 19.9782 8.05275 18.5154 6.59512C17.0526 5.1375 15.0687 4.31861 13 4.31861C10.9313 4.31861 8.94735 5.1375 7.48457 6.59512C6.02178 8.05275 5.2 10.0297 5.2 12.0911C5.20049 12.3797 5.21676 12.6679 5.24875 12.9547H0.866667C0.636812 12.9547 0.416372 13.0457 0.253841 13.2077C0.0913092 13.3696 0 13.5893 0 13.8183C0 14.0474 0.0913092 14.267 0.253841 14.429C0.416372 14.591 0.636812 14.6819 0.866667 14.6819H25.1333C25.3632 14.6819 25.5836 14.591 25.7462 14.429C25.9087 14.267 26 14.0474 26 13.8183C26 13.5893 25.9087 13.3696 25.7462 13.2077C25.5836 13.0457 25.3632 12.9547 25.1333 12.9547ZM6.93333 12.0911C6.93174 11.2598 7.10224 10.4371 7.43416 9.67437C7.76609 8.91167 8.25232 8.22539 8.86245 7.65842C9.47259 7.09144 10.1935 6.65596 10.9802 6.37918C11.7669 6.10241 12.6024 5.99028 13.4345 6.04983C14.2666 6.10937 15.0775 6.33929 15.8164 6.72523C16.5553 7.11117 17.2064 7.64483 17.729 8.29285C18.2516 8.94088 18.6344 9.68934 18.8536 10.4915C19.0727 11.2936 19.1235 12.1322 19.0028 12.9547H6.99725C6.9553 12.6687 6.93394 12.3801 6.93333 12.0911ZM22.5333 18.1364C22.5333 18.3654 22.442 18.5851 22.2795 18.7471C22.117 18.909 21.8965 19 21.6667 19H4.33333C4.10348 19 3.88304 18.909 3.72051 18.7471C3.55798 18.5851 3.46667 18.3654 3.46667 18.1364C3.46667 17.9073 3.55798 17.6877 3.72051 17.5257C3.88304 17.3638 4.10348 17.2728 4.33333 17.2728H21.6667C21.8965 17.2728 22.117 17.3638 22.2795 17.5257C22.442 17.6877 22.5333 17.9073 22.5333 18.1364ZM7.02433 1.25063C6.92147 1.04564 6.90455 0.808322 6.97728 0.590892C7.05001 0.373463 7.20645 0.19373 7.41217 0.091233C7.61789 -0.0112642 7.85604 -0.0281296 8.07424 0.0443469C8.29244 0.116823 8.47281 0.272704 8.57567 0.477699L9.44233 2.20492C9.49327 2.30642 9.52363 2.41693 9.53171 2.53013C9.53978 2.64333 9.5254 2.757 9.48939 2.86466C9.45337 2.97232 9.39643 3.07186 9.32181 3.15759C9.2472 3.24332 9.15636 3.31357 9.0545 3.36432C8.95264 3.41507 8.84174 3.44533 8.72814 3.45338C8.61454 3.46142 8.50047 3.44709 8.39243 3.41121C8.28439 3.37532 8.1845 3.31858 8.09846 3.24422C8.01243 3.16987 7.94193 3.07936 7.891 2.97785L7.02433 1.25063ZM0.957667 6.52298C1.00864 6.42152 1.07917 6.33106 1.16524 6.25677C1.25131 6.18249 1.35123 6.12583 1.45928 6.09004C1.56733 6.05425 1.6814 6.04003 1.79497 6.04819C1.90854 6.05635 2.01938 6.08673 2.12117 6.13759L3.8545 7.0012C4.06008 7.1037 4.21637 7.28338 4.289 7.5007C4.36163 7.71803 4.34465 7.95521 4.24179 8.16006C4.13893 8.36491 3.95862 8.52066 3.74052 8.59303C3.52243 8.66541 3.28441 8.64848 3.07883 8.54599L1.3455 7.68238C1.24359 7.63168 1.1527 7.56146 1.07804 7.47574C1.00338 7.39002 0.946416 7.29047 0.910396 7.18279C0.874376 7.07511 0.860011 6.96141 0.868122 6.84819C0.876233 6.73498 0.906661 6.62447 0.957667 6.52298ZM21.7577 8.15952C21.655 7.95466 21.6382 7.71756 21.7109 7.50034C21.7836 7.28313 21.94 7.10359 22.1455 7.0012L23.8788 6.13759C23.9806 6.08684 24.0915 6.05656 24.205 6.04849C24.3185 6.04042 24.4325 6.05471 24.5405 6.09055C24.6485 6.12638 24.7484 6.18306 24.8344 6.25735C24.9204 6.33164 24.9909 6.42209 25.0418 6.52352C25.0927 6.62495 25.1231 6.73538 25.1312 6.84852C25.1393 6.96165 25.125 7.07526 25.089 7.18287C25.053 7.29048 24.9962 7.38998 24.9216 7.47569C24.8471 7.56139 24.7563 7.63162 24.6545 7.68238L22.9212 8.54599C22.8193 8.59681 22.7084 8.62713 22.5948 8.63522C22.4812 8.6433 22.3671 8.62898 22.259 8.59309C22.151 8.5572 22.0511 8.50043 21.965 8.42603C21.879 8.35164 21.8085 8.26107 21.7577 8.15952ZM16.5577 2.20492L17.4243 0.477699C17.5272 0.272704 17.7076 0.116823 17.9258 0.0443469C18.144 -0.0281296 18.3821 -0.0112642 18.5878 0.091233C18.7936 0.19373 18.95 0.373463 19.0227 0.590892C19.0955 0.808322 19.0785 1.04564 18.9757 1.25063L18.109 2.97785C18.0061 3.18285 17.8258 3.33873 17.6076 3.41121C17.3894 3.48368 17.1512 3.46682 16.9455 3.36432C16.7398 3.26182 16.5833 3.08209 16.5106 2.86466C16.4379 2.64723 16.4548 2.40992 16.5577 2.20492Z" fill="#EFECE6" fill-opacity="0.4"/>
</svg>
